<mxfile host="app.diagrams.net" modified="2024-05-14T12:24:10.647Z" agent="Mozilla/5.0 (Windows NT 10.0; Win64; x64) AppleWebKit/537.36 (KHTML, like Gecko) Chrome/123.0.0.0 Safari/537.36" version="24.4.0" etag="XjiUKjZQRKaM91GLqPPG" type="github">
  <diagram name="PÃ¡gina-1" id="40_C-md5oyXfnTFOnDLf">
    <mxGraphModel>
      <root>
        <mxCell id="0" />
        <mxCell id="1" parent="0" />
      </root>
    </mxGraphModel>
  </diagram>
</mxfile>
